Coordinates
version=1
nRows=11
nColumns=63
inDegrees=yes

Units are S.I. units (second, meters, Newtons, ...)
If the header above contains a line with 'inDegrees', this indicates whether rotational values are in degrees (yes) or radians (no).

endheader
time	pelvis_tilt	pelvis_list	pelvis_rotation	pelvis_tx	pelvis_ty	pelvis_tz	hip_flexion_r	hip_adduction_r	hip_rotation_r	knee_angle_r	knee_angle_r_beta	ankle_angle_r	subtalar_angle_r	mtp_angle_r	hip_flexion_l	hip_adduction_l	hip_rotation_l	knee_angle_l	knee_angle_l_beta	ankle_angle_l	subtalar_angle_l	mtp_angle_l	L5_S1_Flex_Ext	L5_S1_Lat_Bending	L5_S1_axial_rotation	L4_L5_Flex_Ext	L4_L5_Lat_Bending	L4_L5_axial_rotation	L3_L4_Flex_Ext	L3_L4_Lat_Bending	L3_L4_axial_rotation	L2_L3_Flex_Ext	L2_L3_Lat_Bending	L2_L3_axial_rotation	L1_L2_Flex_Ext	L1_L2_Lat_Bending	L1_L2_axial_rotation	L1_T12_Flex_Ext	L1_T12_Lat_Bending	L1_T12_axial_rotation	Abs_r3	Abs_r2	Abs_r1	Abs_t1	Abs_t2	neck_flexion	neck_bending	neck_rotation	arm_flex_r	arm_add_r	arm_rot_r	elbow_flex_r	pro_sup_r	wrist_flex_r	wrist_dev_r	arm_flex_l	arm_add_l	arm_rot_l	elbow_flex_l	pro_sup_l	wrist_flex_l	wrist_dev_l
      4.40677966	     -0.58665578	    -10.95404429	     55.27088144	      0.26153734	      0.92548718	      0.69491060	     21.08413432	      2.49916678	      7.41058867	     22.06128610	      0.38504208	     42.03932985	     17.96399244	      0.00000000	     14.47476893	     -2.96850386	     -3.14379405	     19.85363037	      0.34651122	     40.00563517	    -18.57622329	      0.00000000	     -0.12501300	     -1.06836006	     -1.55923244	     -0.23216165	     -1.42091888	     -1.65668446	     -0.20538386	     -2.59761065	     -1.65668446	     -0.14287736	     -2.59761065	     -1.36432838	     -0.11608707	     -2.17859983	     -1.26687635	     -0.07143243	     -1.65488973	     -1.16942433	     -0.89295538	    -12.08550267	     -8.67198303	      0.00000000	      0.00000000	     12.80600782	     12.40570052	      1.25065290	     83.82876244	    -16.55986218	     17.48964052	    109.21108874	     87.61341316	      6.60931529	     22.99219733	     39.02260119	      2.96446006	    103.90283460	      1.01174524	      1.15239697	     38.99202166	    -23.00226805
      4.42372881	     -0.84874419	    -11.06605441	     55.08478039	      0.26220787	      0.92512374	      0.69431277	     21.16677051	      2.43381789	      7.89524127	     21.93866310	      0.38290190	     41.98675359	     17.82255058	      0.00000000	     14.41939345	     -2.85022694	     -3.40216993	     19.49601986	      0.34026974	     39.93803696	    -18.56844680	      0.00000000	     -0.10048422	     -1.09053940	     -1.47196976	     -0.18660924	     -1.45041741	     -1.56396787	     -0.16508552	     -2.65153751	     -1.56396787	     -0.11484341	     -2.65153751	     -1.28797354	     -0.09330964	     -2.22382795	     -1.19597543	     -0.05741668	     -1.68924554	     -1.10397732	     -0.71774872	    -12.33639985	     -8.18665423	      0.00000000	      0.00000000	     14.00327572	     12.98224819	      0.40914496	     84.48607841	    -16.20102645	     18.01907723	    109.25279593	     87.85732109	      6.53466341	     21.18118045	     36.41579075	      1.36366535	    101.67666630	      1.44814401	      1.27455892	     25.07658542	    -22.33833753
      4.44067797	     -1.14041329	    -11.15593256	     55.24347365	      0.26299602	      0.92461092	      0.69377090	     21.24491746	      2.20638111	      7.89141441	     21.90084495	      0.38224185	     41.84960501	     17.63277068	      0.00000000	     14.45096675	     -2.61939747	     -3.29731445	     19.23046958	      0.33563501	     39.74481608	    -18.53645987	      0.00000000	     -0.07902434	     -1.13424580	     -1.46740802	     -0.14675611	     -1.50854691	     -1.55912102	     -0.12982909	     -2.75780523	     -1.55912102	     -0.09031692	     -2.75780523	     -1.28398202	     -0.07338200	     -2.31295403	     -1.19226902	     -0.04515451	     -1.75694674	     -1.10055602	     -0.56446298	    -12.83081532	     -8.16128319	      0.00000000	      0.00000000	     15.35060018	     13.97256890	     -0.80683209	     84.57086534	    -16.09600356	     18.11069942	    109.90130966	     87.96572290	      6.45865290	     15.69794084	     34.19212008	     -0.32849487	    103.73976850	      1.50249644	      1.37105152	      9.26122960	    -21.88351962
      4.45762712	     -1.55454632	    -11.17966529	     55.78508469	      0.26413309	      0.92403281	      0.69336493	     21.32488144	      1.74382925	      7.54857482	     21.93860168	      0.38290083	     41.68370069	     17.23899916	      0.00000000	     14.52718483	     -2.18024721	     -2.78568763	     18.90397543	      0.32993661	     39.41978014	    -18.50023458	      0.00000000	     -0.05644175	     -1.20679018	     -1.62472544	     -0.10481797	     -1.60503094	     -1.72627078	     -0.09272815	     -2.93418965	     -1.72627078	     -0.06450727	     -2.93418965	     -1.42163476	     -0.05241181	     -2.46088654	     -1.32008942	     -0.03225081	     -1.86931799	     -1.21854408	     -0.40315776	    -13.65145192	     -9.03623548	      0.00000000	      0.00000000	     16.95709001	     15.47285096	     -1.68276516	     84.31562699	    -15.54397785	     17.96467597	    110.81025046	     87.96595430	      6.01059638	      9.37314224	     31.92023405	     -2.63154335	    109.53985354	      1.06544388	      1.44841341	     -4.05663415	    -20.97996226
      4.47457627	     -2.00226920	    -11.10127158	     56.56925510	      0.26553827	      0.92359673	      0.69303457	     21.33064944	      1.13757756	      7.03046872	     22.04560329	      0.38476836	     41.59896763	     16.70684459	      0.00000000	     14.54357843	     -1.62538099	     -2.12269728	     18.51751430	      0.32319159	     39.05051475	    -18.41019266	      0.00000000	     -0.03892691	     -1.29349985	     -1.87618027	     -0.07229116	     -1.72035479	     -1.99344154	     -0.06395301	     -3.14501552	     -1.99344154	     -0.04448956	     -3.14501552	     -1.64165774	     -0.03614752	     -2.63770489	     -1.52439647	     -0.02224283	     -2.00363126	     -1.40713520	     -0.27805100	    -14.63232895	    -10.43475180	      0.00000000	      0.00000000	     18.57165664	     17.21356210	     -2.24368096	     83.90163324	    -14.59046691	     17.66711457	    111.80162313	     87.84577305	      5.45827259	      5.28152509	     29.51200297	     -5.52222763	    116.13864860	      0.75280928	      1.63167228	    -12.98638088	    -18.89741457
      4.49152542	     -2.38111828	    -10.98220078	     57.66333493	      0.26688580	      0.92341899	      0.69254198	     21.17829234	      0.48889367	      6.34599619	     22.06649661	      0.38513302	     41.45405405	     15.87529599	      0.00000000	     14.50323147	     -1.05476933	     -1.15719829	     18.11863815	      0.31622989	     38.70926598	    -18.35450408	      0.00000000	     -0.03140974	     -1.37445034	     -2.20273100	     -0.05833102	     -1.82801895	     -2.34040169	     -0.05160305	     -3.34183856	     -2.34040169	     -0.03589819	     -3.34183856	     -1.92738963	     -0.02916708	     -2.80277914	     -1.78971894	     -0.01794752	     -2.12902358	     -1.65204825	     -0.22435660	    -15.54805715	    -12.25092901	      0.00000000	      0.00000000	     19.96474806	     18.74626885	     -2.46151021	     83.34842164	    -13.32988480	     17.15348736	    112.37209136	     87.65498042	      5.58118675	      2.79929391	     26.88003628	     -8.64991357	    121.23024472	      0.60978894	      2.02114701	    -17.86742900	    -16.91355669
      4.50847458	     -2.66461316	    -10.86142431	     58.23534503	      0.26851847	      0.92345552	      0.69234156	     21.02198539	      0.07260676	      6.01197177	     22.11072200	      0.38590490	     41.21847653	     15.17618427	      0.00000000	     14.35002517	     -0.72336506	     -0.94537762	     17.73474795	      0.30952974	     38.47090097	    -18.12042790	      0.00000000	     -0.02768766	     -1.43679343	     -2.42346098	     -0.05141875	     -1.91093527	     -2.57492729	     -0.04548806	     -3.49341956	     -2.57492729	     -0.03164423	     -3.49341956	     -2.12052836	     -0.02571076	     -2.92990917	     -1.96906205	     -0.01582073	     -2.22559303	     -1.81759573	     -0.19777018	    -16.25329468	    -13.47856293	      0.00000000	      0.00000000	     21.28747003	     19.61690220	     -2.78513973	     82.79785111	    -12.09571791	     16.67336994	    112.70416888	     87.32406259	      5.40632408	      2.49409027	     24.10828671	    -11.63799150	    121.90662867	      0.58645677	      2.74485262	    -18.34481244	    -15.97498962
      4.52542373	     -2.93450112	    -10.60405631	     59.48380822	      0.27005675	      0.92396075	      0.69111127	     20.55400312	     -0.56170090	      5.42052214	     21.99278518	      0.38384651	     41.02130448	     14.02409166	      0.00000000	     14.03818727	     -0.17657490	     -0.04511195	     17.34210562	      0.30267684	     38.08853813	    -18.03816750	      0.00000000	     -0.03584984	     -1.51953862	     -2.72969320	     -0.06657674	     -2.02098637	     -2.90029903	     -0.05889771	     -3.69460620	     -2.90029903	     -0.04097279	     -3.69460620	     -2.38848155	     -0.03329016	     -3.09864316	     -2.21787573	     -0.02048460	     -2.35376532	     -2.04726990	     -0.25607185	    -17.18932478	    -15.18173467	      0.00000000	      0.00000000	     21.73943098	     20.70236350	     -2.97781056	     81.75367905	    -11.04700307	     15.93908541	    112.90593983	     87.19735009	      5.19535604	      2.19710790	     21.16837837	    -14.42497767	    122.02325152	      0.63162129	      3.21834514	    -18.96038219	    -14.58778166
      4.54237288	     -3.00048476	    -10.52861837	     60.88373518	      0.27139175	      0.92433462	      0.68952306	     20.07230812	     -0.94361743	      4.74270965	     21.75380261	      0.37967548	     40.84600813	     12.89360918	      0.00000000	     13.86078839	      0.11927688	      0.97756190	     17.18298871	      0.29989973	     37.74717039	    -18.02385669	      0.00000000	     -0.04444894	     -1.57046028	     -3.03646392	     -0.08254613	     -2.08871218	     -3.22624291	     -0.07302517	     -3.81841713	     -3.22624291	     -0.05080070	     -3.81841713	     -2.65690593	     -0.04127529	     -3.20248261	     -2.46712693	     -0.02539813	     -2.43264298	     -2.27734794	     -0.31749435	    -17.76536081	    -16.88790138	      0.00000000	      0.00000000	     21.99218699	     21.44042300	     -3.25446113	     80.76758346	    -10.34254182	     15.38082806	    113.14443909	     87.27704835	      4.83258139	      1.89408838	     18.17521770	    -16.81035157	    120.43552751	      0.81205501	      3.28438762	    -18.27159642	    -12.89516845
      4.55932203	     -2.74129450	    -10.76571173	     63.04562594	      0.27174728	      0.92420537	      0.68739566	     19.59933060	     -1.07711579	      3.48684684	     21.35618506	      0.37273574	     40.75467570	     11.66044927	      0.00000000	     14.07010463	      0.16506382	      2.94351333	     17.47633695	      0.30501962	     37.46958924	    -18.24723154	      0.00000000	     -0.05799251	     -1.56775298	     -3.46744978	     -0.10769790	     -2.08511147	     -3.68416539	     -0.09527590	     -3.81183460	     -3.68416539	     -0.06627964	     -3.81183460	     -3.03401855	     -0.05385185	     -3.19696188	     -2.81730294	     -0.03313692	     -2.42844937	     -2.60058733	     -0.41423472	    -17.73473528	    -19.28491542	      0.00000000	      0.00000000	     22.11842541	     21.86164498	     -3.57234094	     80.02922831	    -10.07484498	     15.47973124	    113.31051991	     87.57805635	      3.18896258	      0.65223078	     14.92573169	    -18.87895503	    112.66761678	      1.41066020	      4.18132652	    -14.21787268	    -12.94451798
      4.57627119	     -2.68009851	    -10.75811134	     64.25759958	      0.27323600	      0.92441809	      0.68588710	     19.17695180	     -1.25305586	      2.70292126	     21.05929080	      0.36755396	     40.81021195	     11.44603044	      0.00000000	     14.01010728	      0.23622949	      3.71436276	     17.62706856	      0.30765038	     37.20444150	    -18.14084340	      0.00000000	     -0.07312534	     -1.61821492	     -3.65522043	     -0.13580107	     -2.15222584	     -3.88367171	     -0.12013763	     -3.93452776	     -3.88367171	     -0.08357495	     -3.93452776	     -3.19831788	     -0.06790419	     -3.29986386	     -2.96986660	     -0.04178382	     -2.50661491	     -2.74141532	     -0.52232701	    -18.30557081	    -20.32923947	      0.00000000	      0.00000000	     22.47022877	     22.56444520	     -5.05992289	     79.07004048	    -10.27943892	     15.38687565	    113.86390292	     87.83480512	      0.64831839	     -0.68363864	     11.74176953	    -20.82515293	    103.76394686	      2.73611399	      5.66593522	    -12.26345931	    -12.61945166
